<?xml version='1.0' encoding='UTF-8' standalone='no'?>
<!-- Created with Fritzing (http://www.fritzing.org/) -->
<svg xmlns:svg='http://www.w3.org/2000/svg' xmlns='http://www.w3.org/2000/svg' version='1.2' baseProfile='tiny' x='0in' y='0in' width='1.82277in' height='2.24773in' viewBox='0 0 131.24 161.836' >
<path stroke='#8c8c8c' stroke-width='2.0952' stroke-linecap='round' stroke-linejoin='round' fill='none' d='M120.256,130.41L120.256,131.458' />
<path stroke='#8c8c8c' stroke-width='2.0952' stroke-linecap='round' stroke-linejoin='round' fill='none' d='M120.256,103.7L120.256,102.653' />
<g partID='854155230'><g transform='translate(116.624,132.505)' ><g transform='matrix(0,-1,1,0,0,0)'  ><g xmlns="http://www.w3.org/2000/svg" id="breadboard">
 <rect xmlns="http://www.w3.org/2000/svg" id="connector0pin" x="0.36" height="0.72" width="0.72" fill="none" y="2.5848"/>
 <rect xmlns="http://www.w3.org/2000/svg" id="connector1pin" x="29.8202" height="0.72" width="0.72" fill="none" y="2.5848"/>
 <line xmlns="http://www.w3.org/2000/svg" x1="1.0476" y1="3.6324" x2="2.0952" id="connector0leg" stroke-width="2.0952" y2="3.6324" fill="none" stroke-linecap="round" stroke="#8C8C8C"/>
 <line xmlns="http://www.w3.org/2000/svg" x1="29.8526" y1="3.6324" x2="28.805" id="connector1leg" stroke-width="2.0952" y2="3.6324" fill="none" stroke-linecap="round" stroke="#8C8C8C"/>
 <path xmlns="http://www.w3.org/2000/svg" stroke-width="2.0952" fill="none" d="M1.0476,3.6324l28.3666,0" stroke="#8C8C8C"/>
 <path xmlns="http://www.w3.org/2000/svg" id="body" fill="#D9B477" d="M10.2478,0.49536c-0.36,-0.1656,-0.9792,-0.2952,-1.3752,-0.2952l-1.9872,0c-0.396,0,-0.72,0.324,-0.72,0.72l0,5.35608c0,0.39672,0.324,0.72,0.72,0.72l1.9872,0c0.396,0,1.0152,-0.13608,1.3752,-0.2952l0.072,-0.03528c0.36,-0.1656,0.9792,-0.2952,1.3752,-0.2952l7.1856,0c0.39672,0,1.01448,0.13608,1.37448,0.2952l0.07272,0.03528c0.36,0.1656,0.97776,0.2952,1.3752,0.2952l1.9872,0c0.39744,0,0.72,-0.32328,0.72,-0.72L24.4102,0.92016c0,-0.396,-0.32256,-0.72,-0.72,-0.72l-1.9872,0c-0.39744,0,-1.0152,0.1368,-1.3752,0.2952l-0.07272,0.036c-0.36,0.1656,-0.97776,0.2952,-1.37448,0.2952l-7.1856,0c-0.396,0,-1.0152,-0.1368,-1.3752,-0.2952L10.2478,0.49536z"/>
 <rect xmlns="http://www.w3.org/2000/svg" id="gold_band" x="22.019" height="6.79536" width="0.70272" fill="#ad9f4e" y="0.19368"/>
 <rect xmlns="http://www.w3.org/2000/svg" id="band_rd_multiplier" x="16.1726" height="5.5368" width="1.8504" fill="#c40808" y="0.82656"/>
 <rect xmlns="http://www.w3.org/2000/svg" id="band_2_nd" x="12.4726" height="5.5368" width="1.8504" fill="#000000" y="0.82656"/>
 <path xmlns="http://www.w3.org/2000/svg" id="band_1_st" fill="#8a3d06" d="M10.6286,0.63936c-0.1152,-0.036,-0.2232,-0.072,-0.3096,-0.1152l-0.072,-0.036c-0.36,-0.16488,-0.9792,-0.2952,-1.3752,-0.2952l-0.0864,0l0,6.79608l0.0864,0c0.396,0,1.0152,-0.13608,1.3752,-0.2952l0.072,-0.03528c0.0864,-0.04464,0.1944,-0.07992,0.3096,-0.1152L10.6286,0.63936z"/>
 <path xmlns="http://www.w3.org/2000/svg" id="Shadow" d="M23.711,4.0896L23.711,4.0896c0,0.37944,-0.13032,0.69912,-0.2952,0.69912l-1.9224,0c-0.38016,0,-0.97776,-0.05616,-1.33272,-0.1224L20.088,4.65048c-0.34488,-0.0648,-0.94896,-0.1224,-1.33344,-0.1224L11.808,4.52808c-0.3816,0,-0.9792,0.0576,-1.332,0.1224l-0.072,0.01512c-0.3456,0.06552,-0.9432,0.1224,-1.332,0.1224l-0.3168,0l-1.0008,0l-0.3096,0c-0.3816,0,-0.6984,0.29376,-0.6984,0.64512l0,0.24696L6.7464,5.8392l0,0.1728c0,0.36,0.3168,0.64512,0.6984,0.64512l1.62,0c0.3816,0,0.9792,-0.1224,1.332,-0.26712l0.072,-0.02808c0.3456,-0.14112,0.9504,-0.26496,1.332,-0.26496l6.94656,0c0.37944,0,0.97704,0.12384,1.33416,0.26568l0.07416,0.02808c0.34488,0.14472,0.94464,0.26712,1.33344,0.26712l2.2248,0c0.38088,0,0.69912,-0.2952,0.69912,-0.64512L24.413,5.472L24.413,4.49928L24.413,2.65536C24.1358,2.76336,23.711,3.06576,23.711,4.0896z" opacity="0.3"/>
 <rect xmlns="http://www.w3.org/2000/svg" id="ShadowExtra" x="22.019" height="3.15288" width="0.70272" y="3.48336" opacity="0.4"/>
 <path xmlns="http://www.w3.org/2000/svg" id="ReflexRight" fill="#FFFFFF" d="M19.751,1.08576c0.22968,0,0.49104,-0.1008,0.6624,-0.1728c0.2016,-0.0792,0.57672,-0.144,0.96624,-0.144l1.46088,0c0.22464,0,0.22464,0.2448,0.22464,0.3744c0,0.1296,-0.01512,0.3816,-0.22464,0.3816l-3.06,0c-0.10728,0,-0.2304,-0.1152,-0.2304,-0.22392C19.5566,1.21536,19.6286,1.08576,19.751,1.08576z" opacity="0.25"/>
 <circle xmlns="http://www.w3.org/2000/svg" id="ReflexLeft" r="0.432" cx="6.99984" fill="#FFFFFF" opacity="0.35" cy="1.13616"/>
 <rect xmlns="http://www.w3.org/2000/svg" id="Reflex_gold" x="22.019" height="1.62" width="0.70272" fill="#FFFF33" y="0.42336" opacity="0.5"/>
 <rect xmlns="http://www.w3.org/2000/svg" id="Reflex_extra" x="22.019" height="0.7488" width="0.70272" fill="#FFFFFF" y="0.78336" opacity="0.5"/>
</g>
</g></g></g><g partID='854140080'><g transform='translate(0,126.052)' ><g transform='matrix(0,-1,1,0,0,0)'  ><g id="breadboard">
<rect id="middle" x="15.5232" height="43.2" width="86.4" fill="#ff5555" y="0.0152523" gorn="0.1.0"/>
<g transform="matrix(1, 0, 0, 1, 15.5232, 14.4153)">
<polygon id="left" points="0.54,3.9312,0.54,27.0288,0,28.8,0,2.16" fill="#1f1f1f" gorn="0.1.4"/>
</g>
<g transform="matrix(0, -0.1, 0.1, 0, 19.0029, 35.9679)">
<polygon id="polygon7" points="15.6321,0,15.6321,0,0,15.6321,0,56.3578,15.6321,72,56.3578,72,72,56.3578,72,15.6321,56.3578,0" fill="#404040"/>
</g>
<g transform="matrix(0, -0.1, 0.1, 0, 19.0029, 35.9679)">
<polygon id="polygon23" points="87.6319,0,87.6319,0,72,15.6321,72,56.3578,87.6319,72,128.358,72,144,56.3578,144,15.6321,128.358,0" fill="#404040"/>
</g>
<g transform="matrix(0, -0.1, 0.1, 0, 19.0029, 35.9679)">
<polygon id="polygon39-2" points="159.632,0,159.632,0,144,15.6321,144,56.3578,159.632,72,200.358,72,216,56.3578,216,15.6321,200.358,0" fill="#404040"/>
</g>
<g transform="matrix(0.0292493, 0.192515, -0.0509988, 0.0513048, 0.145359, -6.35737)">
<polygon id="polygon33-7" points="113.906,41.9058,113.906,30.0941,119.496,24.5133,119.496,47.4965" fill="#aa8800"/>
</g>
<g transform="scale(-1,-1)">
<rect id="rect29" x="-2.49733" height="0.680651" width="1.18216" fill="#ffffff" y="-17.7665"/>
</g>
<g transform="matrix(0, -0.0999985, 0.123979, 0.0521716, -3.97031, 27.7903)">
<polygon id="polygon35" points="102.094,41.9058,113.906,41.9058,119.496,47.4965,96.5131,47.4965" fill="#d4aa00"/>
</g>
<g transform="matrix(0,-1,1,0,0,0)">
<rect id="rect43" x="-20.6918" height="2.29832" width="2.29828" fill="#8d8c8c" y="21.3272"/>
</g>
<g transform="matrix(0,-1,1,0,0,0)">
<rect id="rect45" x="-20.1337" height="1.18216" width="1.18214" fill="#8c8663" y="21.8853"/>
</g>
<g transform="matrix(0, -0.0999985, 0.1, 0, 18.8758, 37.5429)">
<polygon id="polygon47" points="185.906,30.0941,191.496,24.5133,168.513,24.5133,174.094,30.0941" fill="#b8af82"/>
</g>
<g transform="matrix(0, -0.0999985, 0.1, 0, 18.8758, 37.5429)">
<polygon id="polygon49" points="191.496,24.5133,191.496,47.4965,185.906,41.9058,185.906,30.0941" fill="#80795b"/>
</g>
<g transform="matrix(0, -0.0999985, 0.1, 0, 18.8758, 37.5429)">
<polygon id="polygon51" points="191.496,47.4965,168.513,47.4965,174.094,41.9058,185.906,41.9058" fill="#5e5b43"/>
</g>
<g transform="matrix(0, -0.0999985, 0.1, 0, 18.8758, 37.5429)">
<polygon id="polygon53-8" points="174.094,41.9058,168.513,47.4965,168.513,24.5133,174.094,30.0941" fill="#9a916c"/>
</g>
<g transform="matrix(0,-1,1,0,0,0)">
<rect id="rect3420" x="-18.3338" height="21.2438" width="0.577491" fill-opacity="1" fill="#d4aa00" y="2.27647"/>
</g>
<g transform="matrix(0,-1,1,0,0,0)">
<rect id="rect3424" x="-17.8463" height="2.0764" width="1.43998" fill-opacity="1" fill="#d4aa00" y="21.4063"/>
</g>
<g transform="matrix(0.7001356,-0.7140099,0.84648917,0.53240594,0,0)">
<rect id="rect27" x="-15.7294" height="1.25599" width="2.07119" fill="#ffffff" y="13.1194"/>
</g>
<g transform="matrix(0,-1,1,0,0,0)">
<rect id="rect3681" x="-20.6306" height="21.6" width="2.30397" fill-opacity="1" fill="#ffcc00" y="1.91085"/>
</g>
<g transform="matrix(0.0292493, 0.192515, -0.0509988, 0.0513048, 0.145359, 0.854831)">
<polygon id="polygon3444" points="113.906,30.0941,119.496,24.5133,119.496,47.4965,113.906,41.9058" fill="#aa8800"/>
</g>
<g transform="scale(-1,-1)">
<rect id="rect3448" x="-2.49733" height="0.680651" width="1.18216" fill="#ffffff" y="-24.9787"/>
</g>
<g transform="matrix(0, -0.0999985, 0.123979, 0.0521716, -3.97031, 35.0025)">
<polygon id="polygon3450" points="113.906,41.9058,119.496,47.4965,96.5131,47.4965,102.094,41.9058" fill="#d4aa00"/>
</g>
<g transform="matrix(0,-1,1,0,0,0)">
<rect id="rect3452" x="-27.904" height="2.29832" width="2.29828" fill="#8d8c8c" y="21.3272"/>
</g>
<g transform="matrix(0,-1,1,0,0,0)">
<rect id="rect3454" x="-27.346" height="1.18216" width="1.18214" fill="#8c8663" y="21.8853"/>
</g>
<g transform="matrix(0, -0.0999985, 0.1, 0, 18.8758, 44.7551)">
<polygon id="polygon3456" points="191.496,24.5133,168.513,24.5133,174.094,30.0941,185.906,30.0941" fill="#b8af82"/>
</g>
<g transform="matrix(0, -0.0999985, 0.1, 0, 18.8758, 44.7551)">
<polygon id="polygon3458" points="191.496,47.4965,185.906,41.9058,185.906,30.0941,191.496,24.5133" fill="#80795b"/>
</g>
<g transform="matrix(0, -0.0999985, 0.1, 0, 18.8758, 44.7551)">
<polygon id="polygon3460" points="168.513,47.4965,174.094,41.9058,185.906,41.9058,191.496,47.4965" fill="#5e5b43"/>
</g>
<g transform="matrix(0, -0.0999985, 0.1, 0, 18.8758, 44.7551)">
<polygon id="polygon3462" points="168.513,47.4965,168.513,24.5133,174.094,30.0941,174.094,41.9058" fill="#9a916c"/>
</g>
<g transform="matrix(0,-1,1,0,0,0)">
<rect id="rect3466" x="-25.546" height="21.2438" width="0.577491" fill-opacity="1" fill="#d4aa00" y="2.27647"/>
</g>
<g transform="matrix(0,-1,1,0,0,0)">
<rect id="rect3468" x="-25.0585" height="2.076" width="1.43998" fill-opacity="1" fill="#d4aa00" y="21.4067"/>
</g>
<g transform="matrix(0.7001356,-0.7140099,0.84648917,0.53240594,0,0)">
<rect id="rect3470" x="-21.9771" height="1.25599" width="2.07119" fill="#ffffff" y="18.287"/>
</g>
<g transform="matrix(0,-1,1,0,0,0)">
<rect id="rect3679" x="-27.8428" height="21.6" width="2.30397" fill-opacity="1" fill="#ffcc00" y="1.91085"/>
</g>
<g transform="matrix(0.0292493, 0.192515, -0.0509988, 0.0513048, 0.162706, 8.05472)">
<polygon id="polygon3474" points="113.906,30.0941,119.496,24.5133,119.496,47.4965,113.906,41.9058" fill="#aa8800"/>
</g>
<g transform="scale(-1,-1)">
<rect id="rect3478" x="-2.51468" height="0.680651" width="1.18216" fill="#ffffff" y="-32.1786"/>
</g>
<g transform="matrix(0, -0.0999985, 0.123979, 0.0521716, -3.95296, 42.2024)">
<polygon id="polygon3480" points="113.906,41.9058,119.496,47.4965,96.5131,47.4965,102.094,41.9058" fill="#d4aa00"/>
</g>
<g transform="matrix(0,-1,1,0,0,0)">
<rect id="rect3482" x="-35.1039" height="2.29832" width="2.29828" fill="#8d8c8c" y="21.3445"/>
</g>
<g transform="matrix(0,-1,1,0,0,0)">
<rect id="rect3484" x="-34.5458" height="1.18216" width="1.18214" fill="#8c8663" y="21.9026"/>
</g>
<g transform="matrix(0, -0.0999985, 0.1, 0, 18.8932, 51.955)">
<polygon id="polygon3486" points="191.496,24.5133,168.513,24.5133,174.094,30.0941,185.906,30.0941" fill="#b8af82"/>
</g>
<g transform="matrix(0, -0.0999985, 0.1, 0, 18.8932, 51.955)">
<polygon id="polygon3488" points="191.496,47.4965,185.906,41.9058,185.906,30.0941,191.496,24.5133" fill="#80795b"/>
</g>
<g transform="matrix(0, -0.0999985, 0.1, 0, 18.8932, 51.955)">
<polygon id="polygon3490" points="168.513,47.4965,174.094,41.9058,185.906,41.9058,191.496,47.4965" fill="#5e5b43"/>
</g>
<g transform="matrix(0, -0.0999985, 0.1, 0, 18.8932, 51.955)">
<polygon id="polygon3492" points="168.513,47.4965,168.513,24.5133,174.094,30.0941,174.094,41.9058" fill="#9a916c"/>
</g>
<g transform="matrix(0,-1,1,0,0,0)">
<rect id="rect3496" x="-32.7459" height="21.2438" width="0.577491" fill-opacity="1" fill="#d4aa00" y="2.29382"/>
</g>
<g transform="matrix(0,-1,1,0,0,0)">
<rect id="rect3498" x="-32.2584" height="2.076" width="1.43998" fill-opacity="1" fill="#d4aa00" y="21.4241"/>
</g>
<g transform="matrix(0.7001356,-0.7140099,0.84648917,0.53240594,0,0)">
<rect id="rect3500" x="-28.2048" height="1.25599" width="2.07119" fill="#ffffff" y="23.4584"/>
</g>
<g transform="matrix(0,-1,1,0,0,0)">
<rect id="rect3677" x="-35.0427" height="21.6" width="2.30397" fill-opacity="1" fill="#ffcc00" y="1.92819"/>
</g>
<g transform="matrix(0, -0.1, 0.1, 0, 19.0029, 28.7421)">
<polygon id="polygon3551" points="159.632,0,144,15.6321,144,56.3578,159.632,72,200.358,72,216,56.3578,216,15.6321,200.358,0,159.632,0" fill="#404040"/>
</g>
<g transform="matrix(0.0292493, 0.192515, -0.0509988, 0.0513048, 0.145359, -13.5831)">
<polygon id="polygon3555" points="113.906,30.0941,119.496,24.5133,119.496,47.4965,113.906,41.9058" fill="#aa8800"/>
</g>
<g transform="scale(-1,-1)">
<rect id="rect3559" x="-2.49733" height="0.680651" width="1.18216" fill="#ffffff" y="-10.5408"/>
</g>
<g transform="matrix(0, -0.0999985, 0.123979, 0.0521716, -3.97031, 20.5645)">
<polygon id="polygon3561" points="113.906,41.9058,119.496,47.4965,96.5131,47.4965,102.094,41.9058" fill="#d4aa00"/>
</g>
<g transform="matrix(0,-1,1,0,0,0)">
<rect id="rect3563" x="-13.466" height="2.29832" width="2.29828" fill="#8d8c8c" y="21.3272"/>
</g>
<g transform="matrix(0,-1,1,0,0,0)">
<rect id="rect3565" x="-12.908" height="1.18216" width="1.18214" fill="#8c8663" y="21.8853"/>
</g>
<g transform="matrix(0, -0.0999985, 0.1, 0, 18.8758, 30.3171)">
<polygon id="polygon3567" points="191.496,24.5133,168.513,24.5133,174.094,30.0941,185.906,30.0941" fill="#b8af82"/>
</g>
<g transform="matrix(0, -0.0999985, 0.1, 0, 18.8758, 30.3171)">
<polygon id="polygon3569" points="191.496,47.4965,185.906,41.9058,185.906,30.0941,191.496,24.5133" fill="#80795b"/>
</g>
<g transform="matrix(0, -0.0999985, 0.1, 0, 18.8758, 30.3171)">
<polygon id="polygon3571" points="168.513,47.4965,174.094,41.9058,185.906,41.9058,191.496,47.4965" fill="#5e5b43"/>
</g>
<g transform="matrix(0, -0.0999985, 0.1, 0, 18.8758, 30.3171)">
<polygon id="polygon3573" points="168.513,47.4965,168.513,24.5133,174.094,30.0941,174.094,41.9058" fill="#9a916c"/>
</g>
<g transform="matrix(0,-1,1,0,0,0)">
<rect id="rect3577" x="-11.108" height="21.2438" width="0.577491" fill-opacity="1" fill="#d4aa00" y="2.27647"/>
</g>
<g transform="matrix(0,-1,1,0,0,0)">
<rect id="rect3579" x="-10.6205" height="2.0764" width="1.43998" fill-opacity="1" fill="#d4aa00" y="21.4063"/>
</g>
<g transform="matrix(0.7001356,-0.7140099,0.84648917,0.53240594,0,0)">
<rect id="rect3581" x="-9.46984" height="1.25599" width="2.07119" fill="#ffffff" y="7.94214"/>
</g>
<g transform="matrix(0,-1,1,0,0,0)">
<rect id="rect3583" x="-13.4049" height="21.6" width="2.30397" fill-opacity="1" fill="#ffcc00" y="1.91085"/>
</g>
<rect id="rect3655" x="101.923" height="7.2" width="14.4" fill-opacity="1" fill="#ff5555" y="-2.04636e-15"/>
<rect id="rect3657" x="101.923" height="7.2" width="14.4" fill-opacity="1" fill="#ff5555" y="36.0153"/>
<g transform="matrix(0,-1,1,0,0,0)">
<rect style="stroke-linecap:round" id="rect20" stroke-width="0" x="-34.2353" height="1.44567" width="0.581105" fill="#8c8c8c" y="64.2123" connectorname="1" stroke="none"/>
</g>
<g transform="matrix(0,-1,1,0,0,0)">
<rect style="stroke-linecap:round" id="rect22" stroke-width="0" x="-33.3141" height="1.44567" width="0.581105" fill="#8c8c8c" y="64.2123" connectorname="2" stroke="none"/>
</g>
<g transform="matrix(0,-1,1,0,0,0)">
<rect style="stroke-linecap:round" id="rect24" stroke-width="0" x="-32.3928" height="1.44567" width="0.581105" fill="#8c8c8c" y="64.2123" connectorname="3" stroke="none"/>
</g>
<g transform="matrix(0,-1,1,0,0,0)">
<rect style="stroke-linecap:round" id="rect26" stroke-width="0" x="-31.4715" height="1.44567" width="0.581105" fill="#8c8c8c" y="64.2123" connectorname="4" stroke="none"/>
</g>
<g transform="matrix(0,-1,1,0,0,0)">
<rect style="stroke-linecap:round" id="rect28" stroke-width="0" x="-31.4715" height="1.44567" width="0.581105" fill="#8c8c8c" y="57.4092" connectorname="5" stroke="none"/>
</g>
<g transform="matrix(0,-1,1,0,0,0)">
<rect style="stroke-linecap:round" id="rect30" stroke-width="0" x="-32.3928" height="1.44567" width="0.581105" fill="#8c8c8c" y="57.4092" connectorname="6" stroke="none"/>
</g>
<g transform="matrix(0,-1,1,0,0,0)">
<rect style="stroke-linecap:round" id="rect32" stroke-width="0" x="-33.3141" height="1.44567" width="0.581105" fill="#8c8c8c" y="57.4092" connectorname="7" stroke="none"/>
</g>
<g transform="matrix(0,-1,1,0,0,0)">
<rect style="stroke-linecap:round" id="rect34" stroke-width="0" x="-34.2353" height="1.44567" width="0.581105" fill="#8c8c8c" y="57.4092" connectorname="8" stroke="none"/>
</g>
<g transform="matrix(0,-1,1,0,0,0)">
<rect style="stroke-linecap:round" id="rect36" stroke-width="0" x="-34.4054" height="3.68503" width="3.68507" fill="#8c8c8c" y="59.6911" connectorname="EP" stroke="none"/>
</g>
<g transform="matrix(0,-1,1,0,0,0)">
<rect id="rect38" stroke-width="0" x="-35.1404" height="4.87192" width="4.84754" fill="#303030" y="59.0976" stroke="none"/>
</g>
<g transform="matrix(0, -0.5, 0.5, 0, 57.4092, 35.1404)">
<polygon id="polygon40" points="0,3.37692,9.69509,3.37692,8.97509,4.09692,0.72,4.09692" fill="#1f1f1f"/>
</g>
<g transform="matrix(0, -0.5, 0.5, 0, 57.4092, 35.1404)">
<polygon id="polygon42" points="0,13.1207,9.69509,13.1207,8.97509,12.4007,0.72,12.4007" fill="#1f1f1f"/>
</g>
<g transform="matrix(0, -0.5, 0.5, 0, 57.4092, 35.1404)">
<polygon id="polygon44" points="0,3.37692,0,13.1207,0.72,12.4007,0.72,4.09692" fill="#000000"/>
</g>
<g transform="matrix(0, -0.5, 0.5, 0, 57.4092, 35.1404)">
<polygon id="polygon46" points="9.69509,3.37692,9.69509,13.1207,8.97509,12.4007,8.97509,4.09692" fill="#3d3d3d"/>
</g>
<g transform="matrix(0,-1,1,0,0,0)">
<circle id="circle48" r="0.36" stroke-width="0" cx="-34.0604" fill="#1f1f1f" stroke="none" cy="62.8895"/>
</g>
<rect id="rect35" x="57.133" height="8.79874" width="9.41039" fill="#999999" y="5.74976"/>
<g transform="matrix(9.01876, 0, 0, 7.67136, 54.5272, 4.88479)">
<polygon id="polygon37" points="1.2109,0.780264,1.2109,0.622944,0.877104,0.622944,0.877104,0.289008,0.71964,0.289008,0.71964,0.622944,0.385704,0.622944,0.385704,0.780264,0.71964,0.780264,0.71964,1.11427,0.877104,1.11427,0.877104,0.780264" fill="#333333"/>
</g>
<g transform="matrix(9.01876, 0, 0, 7.67136, 54.5272, 4.88479)">
<polygon id="polygon39" points="0.385704,0.661608,0.385704,0.622944,0.71964,0.622944,0.71964,0.289008,0.756792,0.289008,0.756792,0.661608" fill="#1a1a1a"/>
</g>
<g transform="matrix(9.01876, 0, 0, 7.67136, 54.5272, 4.88479)">
<polygon id="polygon41" points="0.756792,0.826632,0.71964,0.780264,0.71964,1.06841,0.756792,1.06841" fill="#1a1a1a"/>
</g>
<g transform="matrix(9.01876, 0, 0, 7.67136, 54.5272, 4.88479)">
<polygon id="polygon43" points="0.91296,0.660312,0.87696,0.62316,1.15481,0.62316,1.15481,0.660312" fill="#1a1a1a"/>
</g>
<path id="path45" d="m54.5272,4.85828,0,10.8164,14.4,0,0,-10.8164,-14.4,0zM61.7271,12.7755c-1.62922,0,-2.94935,-1.1229,-2.94935,-2.50872,0,-1.38637,1.32013,-2.50872,2.94935,-2.50872,1.62987,0,2.94935,1.12235,2.94935,2.50872,0,1.38582,-1.31948,2.50872,-2.94935,2.50872z" fill="#3250be"/>
<ellipse id="circle47" rx="0.272727" cx="55.9304" fill="#e6e6e6" ry="0.231982" cy="13.3035"/>
<ellipse id="circle49" rx="0.272727" cx="55.9304" fill="#e6e6e6" ry="0.231982" cy="13.3035"/>
<ellipse id="circle51" rx="0.272727" cx="55.931" fill="#b3b3b3" ry="0.231982" cy="13.3035"/>
<path id="path53" d="m55.7382,13.4681c-0.107142,-0.0905832,-0.106493,-0.238058,0,-0.328641,0.106494,-0.0905832,0.278572,-0.0905832,0.385715,0,0.106493,0.0905832,-0.141558,-0.169015,-0.331818,0.0535766,-0.195454,0.226459,0.051948,0.365648,-0.0538963,0.275064z" fill="#e6e6e6"/>
<path id="path55" d="m56.1233,13.14c0.107142,0.0905839,0.106493,0.238058,0,0.328641,-0.106494,0.0905832,-0.278572,0.0905832,-0.385714,0,-0.105844,-0.090031,0.142207,0.168463,0.332467,-0.0530244,0.194805,-0.227563,-0.0525974,-0.366752,0.0532469,-0.275617z" fill="#808080"/>
<ellipse id="circle57" rx="0.272727" cx="59.7499" fill="#333333" ry="0.231982" cy="8.54238"/>
<ellipse id="circle59" rx="0.272727" cx="63.7538" fill="#333333" ry="0.231982" cy="8.54238"/>
<path id="path63" d="m59.4778,8.66168,-1.3526,-0.769959,-0.361688,0.458993,1.3539,0.770512c0.10065,-0.165149,0.220779,-0.318147,0.36039,-0.459545z" fill="#263c8f"/>
<path id="path65" d="m61.7271,7.75806c0.101948,0,0.198052,0.0165701,0.297402,0.0254074l-0.0227268,-2.03481,-0.649351,0.00607608,0.0227275,2.03371c0.116883,-0.0115992,0.231168,-0.030379,0.351948,-0.030379z" fill="#263c8f"/>
<path id="path67" d="m60.5629,7.96297,-0.744805,-1.12014,-0.564935,0.27175,0.748052,1.12566c0.175325,-0.108258,0.36039,-0.203813,0.561689,-0.277273z" fill="#263c8f"/>
<path id="path69" d="m64.6765,10.2668c0,0.0231984,-0.0071424,0.0436349,-0.00844128,0.0673855l1.5974,-0.119305,-0.0577922,-0.550129,-1.58831,0.118753c0.0363636,0.156864,0.0571428,0.318146,0.0571428,0.483295z" fill="#263c8f"/>
<path id="path71" d="m63.4129,8.21208,0.709091,-1.10523,-0.570779,-0.264018,-0.707792,1.10412c0.201298,0.0701467,0.391558,0.159625,0.56948,0.265122z" fill="#263c8f"/>
<path id="path73" d="m64.3421,9.13062,1.26558,-0.715278,-0.359091,-0.460097,-1.26558,0.714725c0.13961,0.141398,0.25974,0.294396,0.359091,0.46065z" fill="#263c8f"/>
<path id="path75" d="m64.3116,11.4532,1.65584,0.563937,0.24026,-0.513122,-1.6526,-0.563385c-0.0590911,0.180062,-0.14026,0.350734,-0.243507,0.512569z" fill="#263c8f"/>
<path id="path77" d="m63.4778,12.2762,1.92532,1.75533,0.473377,-0.377247,-1.92662,-1.75699c-0.140909,0.140846,-0.296104,0.268988,-0.472077,0.378904z" fill="#263c8f"/>
<path id="path79" d="m59.4921,11.8873,-1.36104,1.22729,0.472728,0.378904,1.36039,-1.22564c-0.174675,-0.112125,-0.330519,-0.239162,-0.472077,-0.380561z" fill="#263c8f"/>
<path id="path81" d="m58.7778,10.2668c0,-0.175091,0.0214286,-0.345211,0.0616882,-0.510912l-1.72143,-0.143055,-0.062987,0.549024,1.72792,0.145264c-0.000648,-0.0138082,-0.0051912,-0.0259596,-0.0051912,-0.0403207z" fill="#263c8f"/>
<path id="path83" d="m58.883,10.8959,-1.74935,0.563937,0.22987,0.51754,1.7539,-0.563936c-0.1,-0.164597,-0.17987,-0.336374,-0.234415,-0.517541z" fill="#263c8f"/>
<g transform="matrix(9.01876, 0, 0, 7.67136, 54.5272, 4.88479)">
<polygon id="polygon85" points="0.886104,1.05322,0.886752,0.790704,1.19009,0.789408,1.19009,0.780264,0.877104,0.780264,0.877104,1.05322" fill="#cccccc"/>
</g>
<path id="path87" d="m61.7271,7.08089c-2.06948,0,-3.74675,1.42669,-3.74675,3.18754,0,1.76085,1.67727,3.18754,3.74675,3.18754,2.07013,0,3.74675,-1.42669,3.74675,-3.18754,-0.000648,-1.76141,-1.67857,-3.18754,-3.74675,-3.18754zm0,5.6946c-1.62922,0,-2.94935,-1.1229,-2.94935,-2.50872,0,-1.38637,1.32013,-2.50872,2.94935,-2.50872,1.62987,0,2.94935,1.12235,2.94935,2.50872,0,1.38582,-1.31948,2.50872,-2.94935,2.50872z" fill="#263c8f"/>
<path id="path91" stroke-width="0.2" d="m64.0369,12.6976,-0.0506498,0.0347976c-0.653247,0.433585,-1.43441,0.662253,-2.25909,0.662253,-0.832468,0,-1.61948,-0.232534,-2.27468,-0.6733l-0.0506491,-0.0347969,-0.801299,0.72301,-0.37013,-0.297158,0.801299,-0.722458,-0.0428573,-0.040873c-0.227273,-0.217069,-0.418182,-0.458441,-0.566883,-0.719696l-0.0279216,-0.049158,-0.99026,0.318146,-0.18052,-0.404312,0.987663,-0.318146,-0.0175327,-0.0524722c-0.0948053,-0.285006,-0.142857,-0.571669,-0.142857,-0.856123l0,-0.0535774,-0.0610387,-0.0336924,-0.857792,-0.0718042,0.0499997,-0.430824,0.920779,0.0778802,0.0116885,-0.0546818c0.0714283,-0.33306,0.202597,-0.647892,0.388312,-0.935108l0.0305194,-0.0475013,-0.672078,-0.383874,0.283116,-0.360125,0.673377,0.383323,0.0402595,-0.0430826c0.226624,-0.239162,0.490909,-0.44905,0.786364,-0.623037l0.0525974,-0.0314834,-0.348052,-0.522512,0.442857,-0.213755,0.348702,0.524169,0.0584417,-0.0220939c0.375324,-0.146922,0.771428,-0.238057,1.17532,-0.270645l0.0642859,-0.00497088,-0.0149357,-1.33555,0.509091,-0.00497088,0.014935,1.33831,0.0642859,0.00497088c0.414286,0.0270645,0.813636,0.111572,1.18831,0.250209l0.0584417,0.0220932,0.320779,-0.500418,0.447403,0.206574,-0.322078,0.50097,0.0538963,0.030379c0.32013,0.181166,0.605844,0.403206,0.846753,0.663358l0.040909,0.0430819,0.583767,-0.33085,0.282468,0.360125,-0.583767,0.329193,0.0318182,0.0480535c0.186363,0.292186,0.316884,0.615856,0.387662,0.958306l0.0123379,0.0546818,0.787662,-0.057996,0.0435067,0.430824,-0.787663,0.0585482,-0.001296,0.0541289c-0.000648,0.308757,-0.0538963,0.613095,-0.159741,0.906386l-0.0188309,0.0530244,0.894156,0.304338,-0.188961,0.402102,-0.897403,-0.305443,-0.0292205,0.0486058c-0.146104,0.243581,-0.331169,0.472249,-0.551299,0.679375l-0.0428566,0.0397685,1.37013,1.24994,-0.372078,0.296053,-1.36948,-1.25049z" fill="none" stroke="#000000"/>
<g transform="scale(1.0842695,0.92227996)">
<text style="font-family:Arial-BoldMT;" font-size="2.39553" id="text95" x="51.5277" fill="#263c8f" y="16.5221">1 3362 3</text>
</g>
<path style="opacity:0.35" id="path97" d="m58.9804,10.464c0,-1.38637,1.32013,-2.50872,2.94935,-2.50872,0.610389,0,1.4461,0.231982,1.4461,0.231982,-0.470779,-0.270646,-1.03896,-0.428062,-1.6487,-0.428062,-1.62922,0,-2.94935,1.12235,-2.94935,2.50872,0,0.361781,0.0902599,0.70644,0.253247,1.01851,0,-0.0011016,-0.0506491,-0.46065,-0.0506491,-0.822431z" enable-background="new    "/>
<rect id="rect99" x="54.5272" height="3.58302" width="14.4" fill="#131e48" y="15.6753"/>
<rect style="opacity:0.18000004;" id="rect101" x="54.5272" height="0.582164" width="14.4" fill="#ffffff" y="15.393" enable-background="new    "/>
<rect id="rect20-3" x="80.3232" height="2.681" width="7.992" fill="#4d4d4d" y="6.54125"/>
<rect style="opacity:0.2;" id="rect22-4" x="80.3232" height="0.046" width="7.992" fill="#ffffff" y="6.54125" enable-background="new    "/>
<rect id="rect24-0" x="80.3232" height="0.798998" width="7.992" fill="#333333" y="8.57125"/>
<rect style="opacity:0.2" id="rect26-4" x="80.3232" height="0.032" width="7.992" y="9.34325" enable-background="new    "/>
<path id="path30" d="m87.1544,6.54125,0,0,0,0,-0.0933048,0,0,0c-0.0802584,0.251,-0.135439,0.796003,-0.135439,1.075,0,0.291,0.0481608,0.693,0.135439,0.955001l0,0,0,0,1.227,-7.2e-06,0,-2.03,-1.13369,0z" fill="#dcdcdc"/>
<path id="path32" d="m81.5723,6.64525,0,-0.104,-1.22599,0,0,2.03,1.22699,0c0.0882864,-0.262994,0.19363,-0.658994,0.19363,-0.954,0,-0.345996,-0.07524,-0.670997,-0.19463,-0.971997z" fill="#dcdcdc"/>
<path id="path34" d="m88.2951,8.67725,-1.22698,0,-0.007056,-0.106006,1.227,0,0.006984,0.106006z" fill="#999999"/>
<path id="path36" d="m80.3523,8.67925,1.22699,0,-0.007056,-0.108,-1.22599,0,0.005976,0.108z" fill="#999999"/>
<rect style="opacity:0.15" id="rect38-2" x="80.3463" height="0.046" width="1.22699" y="9.32925" enable-background="new    "/>
<rect style="opacity:0.5;" id="rect40" x="80.3463" height="0.046" width="1.22699" fill="#ffffff" y="6.54125" enable-background="new    "/>
<rect style="opacity:0.15" id="rect42" x="87.0621" height="0.046" width="1.22799" y="9.32925" enable-background="new    "/>
<rect style="opacity:0.5;" id="rect44" x="87.0621" height="0.046" width="1.22799" fill="#ffffff" y="6.54125" enable-background="new    "/>
<line x1="81.0877" y1="9.37525" x2="81.0877" id="line46" y2="9.37525" fill="none"/>
<rect id="rect48" x="88.1958" height="0.692" width="0.118385" fill="#999999" y="8.67725"/>
<rect id="rect50" x="80.3463" height="0.692" width="0.119388" fill="#999999" y="8.67725"/>
<rect id="rect20-5" x="80.3232" height="2.681" width="7.992" fill="#4d4d4d" y="13.7413"/>
<rect style="opacity:0.2;" id="rect22-49" x="80.3232" height="0.046" width="7.992" fill="#ffffff" y="13.7413" enable-background="new    "/>
<rect id="rect24-9" x="80.3232" height="0.798998" width="7.992" fill="#333333" y="15.7712"/>
<rect style="opacity:0.2" id="rect26-5" x="80.3232" height="0.032" width="7.992" y="16.5433" enable-background="new    "/>
<path id="path30-6" d="m87.1544,13.7413,0,0,0,0,-0.0933048,0,0,0c-0.0802584,0.251,-0.135439,0.796003,-0.135439,1.075,0,0.291,0.0481608,0.693,0.135439,0.955001l0,0,0,0,1.227,-7.2e-06,0,-2.03,-1.13369,0z" fill="#dcdcdc"/>
<path id="path32-1" d="m81.5723,13.8453,0,-0.104,-1.22599,0,0,2.03,1.22699,0c0.0882864,-0.262994,0.19363,-0.658994,0.19363,-0.954,0,-0.345996,-0.07524,-0.670997,-0.19463,-0.971997z" fill="#dcdcdc"/>
<path id="path34-8" d="m88.2951,15.8773,-1.22698,0,-0.007056,-0.106006,1.227,0,0.006984,0.106006z" fill="#999999"/>
<path id="path36-4" d="m80.3523,15.8792,1.22699,0,-0.007056,-0.108,-1.22599,0,0.005976,0.108z" fill="#999999"/>
<rect style="opacity:0.15" id="rect38-1" x="80.3463" height="0.046" width="1.22699" y="16.5292" enable-background="new    "/>
<rect style="opacity:0.5;" id="rect40-6" x="80.3463" height="0.046" width="1.22699" fill="#ffffff" y="13.7413" enable-background="new    "/>
<rect style="opacity:0.15" id="rect42-8" x="87.0621" height="0.046" width="1.22799" y="16.5292" enable-background="new    "/>
<rect style="opacity:0.5;" id="rect44-6" x="87.0621" height="0.046" width="1.22799" fill="#ffffff" y="13.7413" enable-background="new    "/>
<line x1="81.0877" y1="16.5753" x2="81.0877" id="line46-6" y2="16.5753" fill="none"/>
<rect id="rect48-0" x="88.1958" height="0.692" width="0.118385" fill="#999999" y="15.8773"/>
<rect id="rect50-5" x="80.3463" height="0.692" width="0.119388" fill="#999999" y="15.8773"/>
<rect id="rect3837" x="80.3232" height="2.681" width="7.96601" fill="#4d4d4d" y="28.1413"/>
<rect style="opacity:0.2;" id="rect3839" x="80.3232" height="0.046" width="7.96601" fill="#ffffff" y="28.1413" enable-background="new    "/>
<rect id="rect3841" x="80.3232" height="0.798998" width="7.96601" fill="#333333" y="30.1712"/>
<rect style="opacity:0.2" id="rect3843" x="80.3232" height="0.032" width="7.96601" y="30.9433" enable-background="new    "/>
<path id="path3845" d="m87.1322,28.1413,0,0,0,0,-0.0930024,0,0,0c-0.0799992,0.251,-0.135,0.796003,-0.135,1.075,0,0.291,0.0480024,0.693,0.135,0.955001l0,0,0,0,1.223,-7.2e-06,0,-2.03,-1.13,0z" fill="#dcdcdc"/>
<path id="path3847" d="m81.5682,28.2453,0,-0.104,-1.22201,0,0,2.03,1.223,0c0.0880056,-0.262994,0.193003,-0.658994,0.193003,-0.954,0,-0.345996,-0.0749952,-0.670997,-0.193997,-0.971997z" fill="#dcdcdc"/>
<path id="path3849" d="m88.2692,30.2773,-1.22298,0,-0.006984,-0.106006,1.223,0,0.006984,0.106006z" fill="#999999"/>
<path id="path3851" d="m80.3522,30.2792,1.223,0,-0.006984,-0.108,-1.22201,0,0.005976,0.108z" fill="#999999"/>
<rect style="opacity:0.15" id="rect3853" x="80.3462" height="0.046" width="1.223" y="30.9293" enable-background="new    "/>
<rect style="opacity:0.5;" id="rect3855" x="80.3462" height="0.046" width="1.223" fill="#ffffff" y="28.1413" enable-background="new    "/>
<rect style="opacity:0.15" id="rect3857" x="87.0402" height="0.046" width="1.224" y="30.9293" enable-background="new    "/>
<rect style="opacity:0.5;" id="rect3859" x="87.0402" height="0.046" width="1.224" fill="#ffffff" y="28.1413" enable-background="new    "/>
<line y1="30.9752" x1="81.0852" x2="81.0852" id="line3861" y2="30.9752" fill="none"/>
<rect id="rect3863" x="88.1702" height="0.692" width="0.118" fill="#999999" y="30.2773"/>
<rect id="rect3865" x="80.3462" height="0.692" width="0.119" fill="#999999" y="30.2773"/>
<rect id="rect3869" x="80.2877" height="2.681" width="7.96601" fill="#4d4d4d" y="35.3413"/>
<rect style="opacity:0.2;" id="rect3871" x="80.2877" height="0.046" width="7.96601" fill="#ffffff" y="35.3413" enable-background="new    "/>
<rect id="rect3873" x="80.2877" height="0.798998" width="7.96601" fill="#333333" y="37.3712"/>
<rect style="opacity:0.2" id="rect3875" x="80.2877" height="0.032" width="7.96601" y="38.1433" enable-background="new    "/>
<path id="path3877" d="m87.0967,35.3413,0,0,0,0,-0.0930024,0,0,0c-0.0799992,0.251,-0.135,0.796003,-0.135,1.075,0,0.291,0.0480024,0.693,0.135,0.955001l0,0,0,0,1.223,-7.2e-06,0,-2.03,-1.13,0z" fill="#dcdcdc"/>
<path id="path3879" d="m81.5327,35.4453,0,-0.104,-1.22201,0,0,2.03,1.223,0c0.0880056,-0.262994,0.193003,-0.658994,0.193003,-0.954,0,-0.345996,-0.0749952,-0.670997,-0.193997,-0.971997z" fill="#dcdcdc"/>
<path id="path3881" d="m88.2337,37.4773,-1.22298,0,-0.006984,-0.106006,1.223,0,0.006984,0.106006z" fill="#999999"/>
<path id="path3883" d="m80.3167,37.4792,1.223,0,-0.006984,-0.108,-1.22201,0,0.005976,0.108z" fill="#999999"/>
<rect style="opacity:0.15" id="rect3885" x="80.3107" height="0.046" width="1.223" y="38.1292" enable-background="new    "/>
<rect style="opacity:0.5;" id="rect3887" x="80.3107" height="0.046" width="1.223" fill="#ffffff" y="35.3413" enable-background="new    "/>
<rect style="opacity:0.15" id="rect3889" x="87.0047" height="0.046" width="1.224" y="38.1292" enable-background="new    "/>
<rect style="opacity:0.5;" id="rect3891" x="87.0047" height="0.046" width="1.224" fill="#ffffff" y="35.3413" enable-background="new    "/>
<line x1="81.0497" y1="38.1752" x2="81.0497" id="line3893" y2="38.1752" fill="none"/>
<rect id="rect3895" x="88.1347" height="0.692" width="0.118" fill="#999999" y="37.4773"/>
<rect id="rect3897" x="80.3107" height="0.692" width="0.119" fill="#999999" y="37.4773"/>
<rect id="rect3901" x="44.3232" height="2.681" width="7.96601" fill="#4d4d4d" y="35.3413"/>
<rect style="opacity:0.2;" id="rect3903" x="44.3232" height="0.046" width="7.96601" fill="#ffffff" y="35.3413" enable-background="new    "/>
<rect id="rect3905" x="45.2783" height="0.798998" width="7.96601" fill="#333333" y="36.4486"/>
<rect style="opacity:0.2" id="rect3907" x="44.3232" height="0.032" width="7.96601" y="38.1433" enable-background="new    "/>
<path id="path3909" d="m51.1322,35.3413,0,0,0,0,-0.0930024,0,0,0c-0.0799992,0.251,-0.135,0.796003,-0.135,1.075,0,0.291,0.0480002,0.693,0.135,0.955001l0,0,0,0,1.223,-7.2e-06,0,-2.03,-1.13,0z" fill="#dcdcdc"/>
<path id="path3911" d="m45.5682,35.4453,0,-0.104,-1.222,0,0,2.03,1.223,0c0.0880006,-0.262994,0.192998,-0.658994,0.192998,-0.954,0,-0.345996,-0.0749952,-0.670997,-0.193997,-0.971997z" fill="#dcdcdc"/>
<path id="path3913" d="m52.2692,37.4773,-1.22299,0,-0.0069984,-0.106006,1.223,0,0.006984,0.106006z" fill="#999999"/>
<path id="path3915" d="m44.3522,37.4792,1.223,0,-0.0069984,-0.108,-1.222,0,0.0059976,0.108z" fill="#999999"/>
<rect style="opacity:0.15" id="rect3917" x="44.3462" height="0.046" width="1.223" y="38.1292" enable-background="new    "/>
<rect style="opacity:0.5;" id="rect3919" x="44.3462" height="0.046" width="1.223" fill="#ffffff" y="35.3413" enable-background="new    "/>
<rect style="opacity:0.15" id="rect3921" x="51.0402" height="0.046" width="1.224" y="38.1292" enable-background="new    "/>
<rect style="opacity:0.5;" id="rect3923" x="51.0402" height="0.046" width="1.224" fill="#ffffff" y="35.3413" enable-background="new    "/>
<line y1="38.1752" x1="45.0852" x2="45.0852" id="line3925" y2="38.1752" fill="none"/>
<rect id="rect3927" x="52.1702" height="0.692" width="0.118" fill="#999999" y="37.4773"/>
<rect id="rect3929" x="44.3462" height="0.692" width="0.119" fill="#999999" y="37.4773"/>
<rect id="rect3933" x="29.9232" height="2.681" width="7.96601" fill="#4d4d4d" y="35.3413"/>
<rect style="opacity:0.2;" id="rect3935" x="29.9232" height="0.046" width="7.96601" fill="#ffffff" y="35.3413" enable-background="new    "/>
<rect id="rect3937" x="29.9232" height="0.798998" width="7.96601" fill="#333333" y="37.3712"/>
<rect style="opacity:0.2" id="rect3939" x="29.9232" height="0.032" width="7.96601" y="38.1433" enable-background="new    "/>
<path id="path3941" d="m36.7322,35.3413,0,0,0,0,-0.0930024,0,0,0c-0.0799992,0.251,-0.135,0.796003,-0.135,1.075,0,0.291,0.0480002,0.693,0.135,0.955001l0,0,0,0,1.223,-7.2e-06,0,-2.03,-1.13,0z" fill="#dcdcdc"/>
<path id="path3943" d="m31.1682,35.4453,0,-0.104,-1.222,0,0,2.03,1.223,0c0.0880013,-0.262994,0.192999,-0.658994,0.192999,-0.954,0,-0.345996,-0.0749952,-0.670997,-0.193997,-0.971997z" fill="#dcdcdc"/>
<path id="path3945" d="m37.8692,37.4773,-1.22299,0,-0.0069984,-0.106006,1.223,0,0.006984,0.106006z" fill="#999999"/>
<path id="path3947" d="m29.9522,37.4792,1.223,0,-0.0069984,-0.108,-1.222,0,0.0059976,0.108z" fill="#999999"/>
<rect style="opacity:0.15" id="rect3949" x="29.9462" height="0.046" width="1.223" y="38.1292" enable-background="new    "/>
<rect style="opacity:0.5;" id="rect3951" x="29.9462" height="0.046" width="1.223" fill="#ffffff" y="35.3413" enable-background="new    "/>
<rect style="opacity:0.15" id="rect3953" x="36.6402" height="0.046" width="1.224" y="38.1292" enable-background="new    "/>
<rect style="opacity:0.5;" id="rect3955" x="36.6402" height="0.046" width="1.224" fill="#ffffff" y="35.3413" enable-background="new    "/>
<line x1="30.6852" y1="38.1752" x2="30.6852" id="line3957" y2="38.1752" fill="none"/>
<rect id="rect3959" x="37.7702" height="0.692" width="0.118" fill="#999999" y="37.4773"/>
<rect id="rect3961" x="29.9462" height="0.692" width="0.119" fill="#999999" y="37.4773"/>
<rect id="rect3965" x="29.9232" height="2.681" width="7.96601" fill="#4d4d4d" y="6.54125"/>
<rect style="opacity:0.2;" id="rect3967" x="29.9232" height="0.046" width="7.96601" fill="#ffffff" y="6.54125" enable-background="new    "/>
<rect id="rect3969" x="29.9232" height="0.798998" width="7.96601" fill="#333333" y="8.57124"/>
<rect style="opacity:0.2" id="rect3971" x="29.9232" height="0.032" width="7.96601" y="9.34325" enable-background="new    "/>
<path id="path3973" d="m36.7322,6.54125,0,0,0,0,-0.0930024,0,0,0c-0.0799992,0.251,-0.135,0.796003,-0.135,1.075,0,0.291,0.0480002,0.693,0.135,0.955001l0,0,0,0,1.223,-7.2e-06,0,-2.03,-1.13,0z" fill="#dcdcdc"/>
<path id="path3975" d="m31.1682,6.64525,0,-0.104,-1.222,0,0,2.03,1.223,0c0.0880013,-0.262994,0.192999,-0.658994,0.192999,-0.954,0,-0.345996,-0.0749952,-0.670997,-0.193997,-0.971997z" fill="#dcdcdc"/>
<path id="path3977" d="m37.8692,8.67725,-1.22299,0,-0.0069984,-0.106006,1.223,0,0.006984,0.106006z" fill="#999999"/>
<path id="path3979" d="m29.9522,8.67924,1.223,0,-0.0069984,-0.108,-1.222,0,0.0059976,0.108z" fill="#999999"/>
<rect style="opacity:0.15" id="rect3981" x="29.9462" height="0.046" width="1.223" y="9.32925" enable-background="new    "/>
<rect style="opacity:0.5;" id="rect3983" x="29.9462" height="0.046" width="1.223" fill="#ffffff" y="6.54125" enable-background="new    "/>
<rect style="opacity:0.15" id="rect3985" x="36.6402" height="0.046" width="1.224" y="9.32925" enable-background="new    "/>
<rect style="opacity:0.5;" id="rect3987" x="36.6402" height="0.046" width="1.224" fill="#ffffff" y="6.54125" enable-background="new    "/>
<line y1="9.37525" x1="30.6852" x2="30.6852" id="line3989" y2="9.37525" fill="none"/>
<rect id="rect3991" x="37.7702" height="0.692" width="0.118" fill="#999999" y="8.67725"/>
<rect id="rect3993" x="29.9462" height="0.692" width="0.119" fill="#999999" y="8.67725"/>
<rect id="rect3997" x="44.3232" height="2.681" width="7.992" fill="#4d4d4d" y="6.54125"/>
<rect style="opacity:0.2;" id="rect3999" x="44.3232" height="0.046" width="7.992" fill="#ffffff" y="6.54125" enable-background="new    "/>
<rect id="rect4001" x="44.3232" height="0.798998" width="7.992" fill="#333333" y="8.57125"/>
<rect style="opacity:0.2" id="rect4003" x="44.3232" height="0.032" width="7.992" y="9.34325" enable-background="new    "/>
<path id="path4005" d="m51.1544,6.54125,0,0,0,0,-0.0933062,0,0,0c-0.0802598,0.251,-0.135441,0.796003,-0.135441,1.075,0,0.291,0.0481572,0.693,0.135441,0.955001l0,0,0,0,1.22699,-7.2e-06,0,-2.03,-1.13368,0z" fill="#dcdcdc"/>
<path id="path4007" d="m45.5723,6.64525,0,-0.104,-1.22599,0,0,2.03,1.22699,0c0.0882886,-0.262994,0.193629,-0.658994,0.193629,-0.954,0,-0.345996,-0.07524,-0.670997,-0.19463,-0.971997z" fill="#dcdcdc"/>
<path id="path4009" d="m52.2951,8.67725,-1.22698,0,-0.00702,-0.106006,1.22699,0,0.0070056,0.106006z" fill="#999999"/>
<path id="path4011" d="m44.3523,8.67925,1.22699,0,-0.00702,-0.108,-1.22599,0,0.0060192,0.108z" fill="#999999"/>
<rect style="opacity:0.15" id="rect4013" x="44.3463" height="0.046" width="1.22699" y="9.32925" enable-background="new    "/>
<rect style="opacity:0.5;" id="rect4015" x="44.3463" height="0.046" width="1.22699" fill="#ffffff" y="6.54125" enable-background="new    "/>
<rect style="opacity:0.15" id="rect4017" x="51.0621" height="0.046" width="1.22799" y="9.32925" enable-background="new    "/>
<rect style="opacity:0.5;" id="rect4019" x="51.0621" height="0.046" width="1.22799" fill="#ffffff" y="6.54125" enable-background="new    "/>
<line x1="45.0877" y1="9.37525" x2="45.0877" id="line4021" y2="9.37525" fill="none"/>
<rect id="rect4023" x="52.1958" height="0.692" width="0.118385" fill="#999999" y="8.67725"/>
<rect id="rect4025" x="44.3463" height="0.692" width="0.119388" fill="#999999" y="8.67725"/>
<circle id="path4027" r="4.5" cx="41.0011" fill-opacity="1" fill="#ffffff" cy="21.6124"/>
<path id="path11" stroke-width="3" d="m106.063,18.0084,-14.1249,0" fill="none" stroke="#000000"/>
<path id="path13" stroke-width="3" d="m106.063,25.2394c0,0,-8.34523,0,-14.1249,0" fill="none" stroke="#ff0000"/>
<g transform="matrix(0,1,-1,0,0,0)">
<ellipse id="ellipse15" rx="17.55" cx="21.6094" fill="#8b8b8b" ry="5.53851" cy="-120.514"/>
</g>
<path id="path17" d="m105.37,4.05939c-3.05879,0,-5.53851,7.857,-5.53851,17.55,0,9.693,2.47972,17.55,5.53851,17.55l15.144,0c-3.05878,0,-5.53851,-7.857,-5.53851,-17.55,0,-9.693,2.47836,-17.55,5.53851,-17.55l-15.144,0z" fill="#8b8b8b"/>
<g transform="matrix(0,1,-1,0,0,0)">
<ellipse id="ellipse19" rx="17.55" cx="21.6094" fill="#dfdfdf" ry="5.53851" cy="-120.514"/>
</g>
<g transform="matrix(0,1,-1,0,0,0)">
<ellipse id="ellipse21" rx="15.921" cx="21.6094" fill="#212121" ry="5.02485" cy="-120.861"/>
</g>
<g transform="matrix(0,1,-1,0,0,0)">
<ellipse id="ellipse25" rx="0.977" cx="34.9034" fill="#595959" ry="0.291572" cy="-121.985"/>
</g>
<g transform="matrix(0,1,-1,0,0,0)">
<ellipse id="ellipse27" rx="0.977" cx="34.9034" fill="#595959" ry="0.291572" cy="-120.53"/>
</g>
<path id="path29" d="m119.804,36.3684c-0.036792,0,-0.072216,0.0280001,-0.10219,0.0680004,0.10219,0.0879998,0.204372,0.168,0.310651,0.232,-0.0531432,-0.183,-0.126713,-0.3,-0.208462,-0.3z" fill="#595959"/>
<path id="path31" d="m121.004,36.8894c0.160776,-0.0219996,0.318823,-0.0730001,0.47551,-0.152,-0.053136,-0.22,-0.130802,-0.368,-0.220723,-0.368,-0.11309,-0.0010008,-0.204372,0.214,-0.254786,0.52z" fill="#595959"/>
<path id="path33" d="m125.149,25.5894c0.0109008,-0.15,0.0245304,-0.299,0.0327024,-0.45,0.001368,-0.0069984,0.001368,-0.0130003,0.001368,-0.0190001,-0.002736,-0.531,-0.130795,-0.959,-0.291571,-0.959,-0.158047,0,-0.29021,0.438,-0.29021,0.978,0,0.539,0.132163,0.977,0.29021,0.977,0.11309,-0.0010008,0.207101,-0.219,0.257508,-0.527z" fill="#595959"/>
<g transform="matrix(0,1,-1,0,0,0)">
<ellipse id="ellipse35" rx="0.976" cx="30.0204" fill="#595959" ry="0.291572" cy="-121.985"/>
</g>
<g transform="matrix(0,1,-1,0,0,0)">
<ellipse id="ellipse37" rx="0.978" cx="25.1394" fill="#595959" ry="0.291572" cy="-121.985"/>
</g>
<path id="path39" d="m123.162,34.6664c0.106272,-0.224001,0.211183,-0.462,0.312012,-0.715,-0.0122616,-0.0059976,-0.0231624,-0.0239998,-0.035424,-0.0239998,-0.134892,0,-0.245254,0.318,-0.276588,0.739z" fill="#595959"/>
<g transform="matrix(0,1,-1,0,0,0)">
<ellipse id="ellipse41" rx="0.976" cx="30.0204" fill="#595959" ry="0.291572" cy="-123.439"/>
</g>
<g transform="matrix(0,1,-1,0,0,0)">
<ellipse id="ellipse43" rx="0.978" cx="25.1394" fill="#595959" ry="0.291572" cy="-123.439"/>
</g>
<path id="path45-0" d="m124.708,29.2884c-0.044964,0.129,-0.0749376,0.298999,-0.0885672,0.498,0.0286128,-0.166,0.0585864,-0.329,0.0885672,-0.498z" fill="#595959"/>
<g transform="matrix(0,1,-1,0,0,0)">
<ellipse id="ellipse47" rx="0.976" cx="27.5794" fill="#595959" ry="0.29021" cy="-122.711"/>
</g>
<g transform="matrix(0,1,-1,0,0,0)">
<ellipse id="ellipse49" rx="0.977" cx="32.4624" fill="#595959" ry="0.29021" cy="-122.711"/>
</g>
<g transform="matrix(0,1,-1,0,0,0)">
<ellipse id="ellipse51" rx="0.976" cx="27.5794" fill="#595959" ry="0.29021" cy="-124.167"/>
</g>
<path id="path53-4" d="m123.876,32.4624c0,0.111,0.008172,0.213,0.017712,0.312,0.122623,-0.393,0.239796,-0.801,0.350158,-1.236,-0.025884,-0.0229997,-0.0504144,-0.0529999,-0.0776592,-0.0529999,-0.160776,0,-0.29021,0.438,-0.29021,0.977z" fill="#595959"/>
<path id="path55-4" d="m119.076,33.9274c-0.160776,0,-0.29021,0.438,-0.29021,0.977,0,0.158,0.0122616,0.303,0.0326952,0.435,0.0844776,0.142,0.168948,0.288,0.256147,0.412,0.0218016,0.0309996,0.044964,0.054,0.0681264,0.0830002,0.126713,-0.104,0.222084,-0.472,0.222084,-0.93,0.001368,-0.54,-0.129434,-0.977,-0.288842,-0.977z" fill="#595959"/>
<g transform="matrix(0,1,-1,0,0,0)">
<ellipse id="ellipse57" rx="0.976" cx="30.0204" fill="#595959" ry="0.29021" cy="-119.076"/>
</g>
<g transform="matrix(0,1,-1,0,0,0)">
<ellipse id="ellipse59" rx="0.978" cx="25.1394" fill="#595959" ry="0.29021" cy="-119.076"/>
</g>
<g transform="matrix(0,1,-1,0,0,0)">
<ellipse id="ellipse61" rx="0.976" cx="30.0204" fill="#595959" ry="0.291572" cy="-120.53"/>
</g>
<g transform="matrix(0,1,-1,0,0,0)">
<ellipse id="ellipse63" rx="0.978" cx="25.1394" fill="#595959" ry="0.291572" cy="-120.53"/>
</g>
<g transform="matrix(0,1,-1,0,0,0)">
<ellipse id="ellipse65" rx="0.976" cx="27.5794" fill="#595959" ry="0.29021" cy="-119.804"/>
</g>
<g transform="matrix(0,1,-1,0,0,0)">
<ellipse id="ellipse67" rx="0.977" cx="32.4624" fill="#595959" ry="0.29021" cy="-119.804"/>
</g>
<g transform="matrix(0,1,-1,0,0,0)">
<ellipse id="ellipse69" rx="0.976" cx="27.5794" fill="#595959" ry="0.29021" cy="-121.258"/>
</g>
<g transform="matrix(0,1,-1,0,0,0)">
<ellipse id="ellipse71" rx="0.977" cx="32.4624" fill="#595959" ry="0.29021" cy="-121.258"/>
</g>
<g transform="matrix(0,1,-1,0,0,0)">
<ellipse id="ellipse73" rx="0.976" cx="30.0204" fill="#595959" ry="0.29021" cy="-117.623"/>
</g>
<g transform="matrix(0,1,-1,0,0,0)">
<ellipse id="ellipse75" rx="0.978" cx="25.1394" fill="#595959" ry="0.29021" cy="-117.623"/>
</g>
<path id="path77-2" d="m117.185,27.5794c0,-0.539,-0.130802,-0.976,-0.291578,-0.976,-0.121255,0,-0.223445,0.249,-0.268409,0.603,0.0504144,0.437,0.104911,0.863,0.166226,1.281,0.0327024,0.0409997,0.0667584,0.0689998,0.102182,0.0689998,0.162137,0.0010008,0.291578,-0.437,0.291578,-0.977z" fill="#595959"/>
<g transform="matrix(0,1,-1,0,0,0)">
<ellipse id="ellipse79" rx="0.976" cx="27.5794" fill="#595959" ry="0.291572" cy="-118.349"/>
</g>
<g transform="matrix(0,1,-1,0,0,0)">
<ellipse id="ellipse81" rx="0.977" cx="32.4624" fill="#595959" ry="0.291572" cy="-118.349"/>
</g>
<g transform="matrix(0,1,-1,0,0,0)">
<ellipse id="ellipse83" rx="0.977" cx="20.2554" fill="#595959" ry="0.291572" cy="-124.893"/>
</g>
<g transform="matrix(0,1,-1,0,0,0)">
<ellipse id="ellipse85" rx="0.977" cx="20.2554" fill="#595959" ry="0.291572" cy="-121.985"/>
</g>
<g transform="matrix(0,1,-1,0,0,0)">
<ellipse id="ellipse87" rx="0.976" cx="15.3734" fill="#595959" ry="0.291572" cy="-121.985"/>
</g>
<g transform="matrix(0,1,-1,0,0,0)">
<ellipse id="ellipse89" rx="0.977" cx="20.2554" fill="#595959" ry="0.291572" cy="-123.439"/>
</g>
<g transform="matrix(0,1,-1,0,0,0)">
<ellipse id="ellipse91" rx="0.976" cx="15.3734" fill="#595959" ry="0.291572" cy="-123.439"/>
</g>
<path id="path93" d="m124.891,16.3494c0.0286128,0,0.0504144,-0.0280001,0.0762984,-0.0499997,-0.0231624,-0.197,-0.0490464,-0.39,-0.0762984,-0.582,-0.0149832,-0.116,-0.0313344,-0.229,-0.0476856,-0.344,-0.0381528,-0.263,-0.0749376,-0.526,-0.115812,-0.779,-0.0749376,0.177,-0.126713,0.451999,-0.126713,0.779,0.001368,0.539,0.132163,0.977,0.29021,0.976z" fill="#595959"/>
<g transform="matrix(0,1,-1,0,0,0)">
<ellipse id="ellipse95" rx="0.977" cx="17.8134" fill="#595959" ry="0.29021" cy="-122.711"/>
</g>
<g transform="matrix(0,1,-1,0,0,0)">
<ellipse id="ellipse97" rx="0.976" cx="22.6964" fill="#595959" ry="0.29021" cy="-122.711"/>
</g>
<g transform="matrix(0,1,-1,0,0,0)">
<ellipse id="ellipse99" rx="0.977" cx="17.8134" fill="#595959" ry="0.29021" cy="-124.167"/>
</g>
<g transform="matrix(0,1,-1,0,0,0)">
<ellipse id="ellipse101" rx="0.976" cx="22.6964" fill="#595959" ry="0.29021" cy="-124.167"/>
</g>
<g transform="matrix(0,1,-1,0,0,0)">
<ellipse id="ellipse103" rx="0.977" cx="20.2554" fill="#595959" ry="0.29021" cy="-119.076"/>
</g>
<g transform="matrix(0,1,-1,0,0,0)">
<ellipse id="ellipse105" rx="0.976" cx="15.3734" fill="#595959" ry="0.29021" cy="-119.076"/>
</g>
<g transform="matrix(0,1,-1,0,0,0)">
<ellipse id="ellipse107" rx="0.977" cx="20.2554" fill="#595959" ry="0.291572" cy="-120.53"/>
</g>
<g transform="matrix(0,1,-1,0,0,0)">
<ellipse id="ellipse109" rx="0.976" cx="15.3734" fill="#595959" ry="0.291572" cy="-120.53"/>
</g>
<g transform="matrix(0,1,-1,0,0,0)">
<ellipse id="ellipse111" rx="0.977" cx="17.8134" fill="#595959" ry="0.29021" cy="-119.804"/>
</g>
<g transform="matrix(0,1,-1,0,0,0)">
<ellipse id="ellipse113" rx="0.976" cx="22.6964" fill="#595959" ry="0.29021" cy="-119.804"/>
</g>
<g transform="matrix(0,1,-1,0,0,0)">
<ellipse id="ellipse115" rx="0.977" cx="17.8134" fill="#595959" ry="0.29021" cy="-121.258"/>
</g>
<g transform="matrix(0,1,-1,0,0,0)">
<ellipse id="ellipse117" rx="0.976" cx="22.6964" fill="#595959" ry="0.29021" cy="-121.258"/>
</g>
<path id="path119" d="m116.41,24.6364c0.0109008,0.168,0.0204408,0.336,0.0299736,0.503,0.002736,0.0439999,0.00684,0.0849996,0.0109008,0.128,0,-0.0430006,0.00684,-0.0820001,0.00684,-0.128,0,-0.189,-0.01908,-0.354,-0.0476928,-0.503z" fill="#595959"/>
<path id="path121" d="m116.387,19.6384c-0.0204336,0.450999,-0.0326952,0.907,-0.0408744,1.37,0.0667656,-0.179,0.11173,-0.442999,0.11173,-0.752,0,-0.239,-0.027252,-0.448,-0.0708552,-0.618z" fill="#595959"/>
<g transform="matrix(0,1,-1,0,0,0)">
<ellipse id="ellipse123" rx="0.977" cx="20.2554" fill="#595959" ry="0.29021" cy="-117.623"/>
</g>
<g transform="matrix(0,1,-1,0,0,0)">
<ellipse id="ellipse125" rx="0.976" cx="15.3734" fill="#595959" ry="0.29021" cy="-117.623"/>
</g>
<g transform="matrix(0,1,-1,0,0,0)">
<ellipse id="ellipse127" rx="0.977" cx="17.8134" fill="#595959" ry="0.291572" cy="-116.894"/>
</g>
<g transform="matrix(0,1,-1,0,0,0)">
<ellipse id="ellipse129" rx="0.976" cx="22.6964" fill="#595959" ry="0.291572" cy="-116.894"/>
</g>
<g transform="matrix(0,1,-1,0,0,0)">
<ellipse id="ellipse131" rx="0.977" cx="17.8134" fill="#595959" ry="0.291572" cy="-118.349"/>
</g>
<g transform="matrix(0,1,-1,0,0,0)">
<ellipse id="ellipse133" rx="0.976" cx="22.6964" fill="#595959" ry="0.291572" cy="-118.349"/>
</g>
<g transform="matrix(0,1,-1,0,0,0)">
<ellipse id="ellipse135" rx="0.976" cx="10.4904" fill="#595959" ry="0.291572" cy="-121.985"/>
</g>
<path id="path137" d="m123.731,10.4924c-0.114451,-0.33,-0.234353,-0.642,-0.356976,-0.933,-0.128074,0.103,-0.226174,0.471,-0.226174,0.93,0,0.54,0.132163,0.978,0.291578,0.978,0.160769,0,0.290203,-0.436,0.291571,-0.975z" fill="#595959"/>
<path id="path139" d="m122.936,8.64639c-0.162137,-0.293,-0.332446,-0.543,-0.505483,-0.769,-0.002736,0.0580003,-0.0095328,0.11,-0.0095328,0.171,0,0.54,0.130795,0.977,0.291571,0.977,0.0912816,0.0010008,0.17167,-0.154,0.223445,-0.379z" fill="#595959"/>
<g transform="matrix(0,1,-1,0,0,0)">
<ellipse id="ellipse141" rx="0.976" cx="12.9324" fill="#595959" ry="0.29021" cy="-122.711"/>
</g>
<path id="path143" d="m124.446,13.1194c-0.0858384,-0.403001,-0.178488,-0.790001,-0.276588,-1.161,-0.001368,-0.0010008,-0.001368,-0.0030024,-0.002736,-0.0030024,-0.160776,0,-0.29021,0.438,-0.29021,0.976,0,0.539,0.129434,0.977,0.29021,0.977,0.141696,0,0.253418,-0.343,0.27931,-0.789z" fill="#595959"/>
<g transform="matrix(0,1,-1,0,0,0)">
<ellipse id="ellipse145" rx="0.976" cx="10.4904" fill="#595959" ry="0.29021" cy="-119.076"/>
</g>
<g transform="matrix(0,1,-1,0,0,0)">
<ellipse id="ellipse147" rx="0.976" cx="10.4904" fill="#595959" ry="0.291572" cy="-120.53"/>
</g>
<path id="path149" d="m120.094,8.04939c0,-0.404,-0.0735768,-0.752,-0.177127,-0.9,-0.114451,0.0770001,-0.224806,0.18,-0.333806,0.286,-0.0422352,0.168,-0.070848,0.377,-0.070848,0.613999,0,0.54,0.129434,0.977,0.291571,0.977,0.160769,0,0.29021,-0.438,0.29021,-0.977z" fill="#595959"/>
<g transform="matrix(0,1,-1,0,0,0)">
<ellipse id="ellipse151" rx="0.976" cx="12.9324" fill="#595959" ry="0.29021" cy="-119.804"/>
</g>
<g transform="matrix(0,1,-1,0,0,0)">
<ellipse id="ellipse153" rx="0.977" cx="8.04939" fill="#595959" ry="0.29021" cy="-121.258"/>
</g>
<g transform="matrix(0,1,-1,0,0,0)">
<ellipse id="ellipse155" rx="0.976" cx="12.9324" fill="#595959" ry="0.29021" cy="-121.258"/>
</g>
<path id="path157" d="m117.911,10.4904c0,-0.0169999,-0.001368,-0.0310003,-0.001368,-0.0470002,-0.111722,0.316,-0.216634,0.652,-0.318823,1.004,0.0109008,0.0040032,0.0204408,0.0210002,0.0299808,0.0210002,0.160769,-0.0010008,0.290203,-0.438,0.290203,-0.978z" fill="#595959"/>
<path id="path159" d="m117.052,13.7334c0.061308,-0.137,0.104911,-0.343,0.121255,-0.595,-0.0422352,0.196001,-0.0831096,0.392,-0.121255,0.595z" fill="#595959"/>
<g transform="matrix(0,1,-1,0,0,0)">
<ellipse id="ellipse161" rx="0.976" cx="12.9324" fill="#595959" ry="0.291572" cy="-118.349"/>
</g>
<path style="opacity:0.62999998;" id="path165" d="m120.514,4.05939,-15.1427,0c-1.932,0,-3.63239,3.142,-4.62428,7.896l15.1427,0c0.991886,-4.754,2.69091,-7.896,4.62428,-7.896z" fill="#666666"/>
<path id="path169" d="m118.14,38.5504,-13.2529,0c0.45643,0.385,0.9333,0.609,1.42924,0.609l13.2515,0c-0.494582,0,-0.971453,-0.224,-1.42788,-0.609z" fill="#8b8b8b"/>
<path id="path171" d="m116.481,36.1694c-0.945569,-2.021,-1.67995,-4.95,-2.08733,-8.388l-13.2556,0c0.407383,3.438,1.14176,6.366,2.08869,8.388l13.2543,0z" fill="#8b8b8b"/>
<path style="opacity:0.3;" id="path173" d="m116.481,36.1694c-0.945569,-2.021,-1.67995,-4.95,-2.08733,-8.388l-13.2556,0c0.407383,3.438,1.14176,6.366,2.08869,8.388l13.2543,0z" fill="#ffffff"/>
<path id="path175" d="m116.481,36.1694,-13.2543,0c0.501394,1.07,1.06138,1.874,1.66087,2.381l13.2529,0c-0.599494,-0.507,-1.15811,-1.311,-1.65951,-2.381z" fill="#8b8b8b"/>
<path style="opacity:0.2;" id="path177" d="m116.481,36.1694,-13.2543,0c0.501394,1.07,1.06138,1.874,1.66087,2.381l13.2529,0c-0.599494,-0.507,-1.15811,-1.311,-1.65951,-2.381z" fill="#ffffff"/>
<text font-size="3.49999" style="font-family:OCRA;" id="text3685" x="27.2949" fill="#ffffff" y="33.823">DO</text>
<text style="font-family:OCRA;" font-size="3.49999" id="text4391" x="27.4261" fill="#ffffff" y="26.4765">+</text>
<text font-size="3.49999" style="font-family:OCRA;" id="text4393" x="27.4261" fill="#ffffff" y="19.5236">G</text>
<text style="font-family:OCRA;" font-size="3.49999" id="text4395" x="27.5573" fill="#ffffff" y="12.046">AO</text>
<g transform="matrix(0,1,-1,0,0,0)">
<text style="font-family:OCRA;" font-size="3.49999" id="text4397" x="15.8894" fill="#ffffff" y="-49.7137">Keyes</text>
</g>
<g transform="matrix(0,-1,1,0,0,0)">
<rect id="connector0pin" x="-13.4049" height="7.2" width="2.30397" fill-opacity="1" fill="#ffcc00" y="1.91085"/>
</g>
<g transform="matrix(0.62354424,-0.78178807,0.7827811,0.62229715,0,0)">
<g id="connector0terminal" x="-8.73104" height="0.508779" width="0.515982" fill-opacity="1" fill="#d4aa00" y="8.79453"/>
</g>
<g transform="matrix(0,-1,1,0,0,0)">
<rect id="connector1pin" x="-20.6306" height="7.2" width="2.30397" fill-opacity="1" fill="#ffcc00" y="1.91085"/>
</g>
<g transform="matrix(0.62354425,-0.78178806,0.78278111,0.62229714,0,0)">
<g id="connector1terminal" x="-14.3671" height="0.508779" width="0.515982" fill-opacity="1" fill="#d4aa00" y="13.2841"/>
</g>
<g transform="matrix(0,-1,1,0,0,0)">
<rect id="connector2pin" x="-27.8429" height="7.2" width="2.304" fill-opacity="1" fill="#ffcc00" y="1.91085"/>
</g>
<g transform="matrix(0.62354424,-0.78178807,0.7827811,0.62229715,0,0)">
<g id="connector2terminal" x="-20.0031" height="0.508779" width="0.515982" fill-opacity="1" fill="#d4aa00" y="17.7736"/>
</g>
<g transform="matrix(0,-1,1,0,0,0)">
<rect id="connector3pin" x="-35.0427" height="7.2" width="2.30397" fill-opacity="1" fill="#ffcc00" y="1.92819"/>
</g>
<g transform="matrix(0.62354425,-0.78178806,0.78278111,0.62229714,0,0)">
<g id="connector3terminal" x="-25.6391" height="0.508779" width="0.515982" fill-opacity="1" fill="#d4aa00" y="22.2631"/>
</g>
</g>
</g></g></g><path stroke='#8c8c8c' stroke-width='2.15136' stroke-linecap='round' stroke-linejoin='round' fill='none' d='M98.6395,31.7606L98.6552,37.8523' />
<path stroke='#8c8c8c' stroke-width='2.15136' stroke-linecap='round' stroke-linejoin='round' fill='none' d='M105.842,31.7606L105.857,38.1886' />
<g partID='854113780'><g transform='translate(94.1128,2.5538)' ><g xmlns="http://www.w3.org/2000/svg" id="breadboard">
 <rect xmlns="http://www.w3.org/2000/svg" id="connector0pin" x="3.45096" height="0.72" width="2.15208" fill="none" y="25.421"/>
 <rect xmlns="http://www.w3.org/2000/svg" id="connector1pin" x="10.651" height="0.72" width="2.15424" fill="none" y="25.421"/>
 <g xmlns="http://www.w3.org/2000/svg" x1="6.287" y1="40.565" x2="6.287" id="connector0leg" stroke-width="2.15136" y2="74.754" fill="none" stroke-linecap="round" stroke="#8C8C8C"/>
 <g xmlns="http://www.w3.org/2000/svg" x1="16.29" y1="40.565" x2="16.29" id="connector1leg" stroke-width="2.15136" y2="74.754" fill="none" stroke-linecap="round" stroke="#8C8C8C"/>
 <rect xmlns="http://www.w3.org/2000/svg" x="3.45096" height="9.82728" width="2.15136" fill="#8C8C8C" y="19.3795"/>
 <path xmlns="http://www.w3.org/2000/svg" fill="#8C8C8C" d="M12.8045,29.2068c0,-1.1736,-1.06488,-2.1024,-2.088,-2.9916c-0.41616,-0.3672,-1.19952,-1.00152,-1.19952,-1.42488l0,-5.47056l-2.16144,0l0,5.78016c0,1.0584,0.94752,1.87848,1.94616,2.74824c0.44424,0.37584,1.34856,1.24992,1.34856,1.76976"/>
 <g xmlns="http://www.w3.org/2000/svg" id="g12">
  <path xmlns="http://www.w3.org/2000/svg" id="color_path14" fill="#666666" d="M14.1732,13.001L14.1732,7.0884C14.1732,3.1752,11.0052,0,7.08768,0C3.1752,0,0,3.16944,0,7.0884l0,13.649c1.47384,1.65096,4.0968,2.75256,7.08768,2.75256c4.61952,0,8.36856,-2.61792,8.36856,-5.85936l0,-1.52352C15.4555,14.9645,14.9818,13.9032,14.1732,13.001z" opacity="0.3"/>
  <path xmlns="http://www.w3.org/2000/svg" id="path16" fill="#E6E6E6" d="M14.1732,13.001L14.1732,7.0884C14.1732,3.1752,11.0052,0,7.08768,0C3.1752,0,0,3.16944,0,7.0884l0,13.649c1.47384,1.65096,4.0968,2.75256,7.08768,2.75256c4.61952,0,8.36856,-2.61792,8.36856,-5.85936l0,-1.52352C15.4555,14.9645,14.9818,13.9032,14.1732,13.001z" opacity="0.5"/>
  <path xmlns="http://www.w3.org/2000/svg" id="path18" fill="#D1D1D1" d="M14.1732,13.001l0,3.10536c0,2.73888,-3.16584,4.96512,-7.08552,4.96512C3.1752,21.0715,0,18.8525,0,16.1064l0,3.10536L0,20.736c1.47384,1.65168,4.0968,2.75256,7.08768,2.75256c4.61952,0,8.36856,-2.61792,8.36856,-5.85864L15.4562,16.1064C15.4555,14.9645,14.9818,13.9032,14.1732,13.001z" opacity="0.9"/>
  <path xmlns="http://www.w3.org/2000/svg" id="color_path20" fill="#666666" d="M14.1732,13.001l0,3.10536c0,2.73888,-3.16584,4.96512,-7.08552,4.96512C3.1752,21.0715,0,18.8525,0,16.1064l0,3.10536L0,20.736c1.47384,1.65168,4.0968,2.75256,7.08768,2.75256c4.61952,0,8.36856,-2.61792,8.36856,-5.85864L15.4562,16.1064C15.4555,14.9645,14.9818,13.9032,14.1732,13.001z" opacity="0.7"/>
  <path xmlns="http://www.w3.org/2000/svg" id="color_path22" fill="#666666" d="M14.1732,13.001l0,3.10536c0,2.73888,-3.16584,4.96512,-7.08552,4.96512C3.1752,21.0715,0,18.8525,0,16.1064l0,3.10536c1.47384,1.65024,4.0968,2.75256,7.08768,2.75256c4.61952,0,8.36856,-2.61792,8.36856,-5.85864C15.4555,14.9645,14.9818,13.9032,14.1732,13.001z" opacity="0.25"/>
  <ellipse xmlns="http://www.w3.org/2000/svg" id="ellipse24" rx="7.08696" cx="7.08768" fill="#E6E6E6" ry="4.9608" opacity="0.25" cy="16.1064"/>
  <ellipse xmlns="http://www.w3.org/2000/svg" id="color_ellipse26" rx="7.08696" cx="7.08768" fill="#666666" ry="4.9608" opacity="0.25" cy="16.1064"/>
  <polygon xmlns="http://www.w3.org/2000/svg" id="polygon28" points="2.2032,9.648,2.2032,16.1071,3.19608,16.1071,3.19608,13.0946,6.0156,13.0946,10.0123,8.80488,3.40704,8.80488" fill="#666666"/>
  <polygon xmlns="http://www.w3.org/2000/svg" id="polygon30" points="10.7784,8.52408,11.2147,9.03384,7.41168,13.0946,11.0599,13.0946,11.0599,16.1071,11.9736,16.1071,11.9736,8.52408" fill="#666666"/>
  <path xmlns="http://www.w3.org/2000/svg" id="color_path32" fill="#666666" d="M14.1732,13.001L14.1732,7.0884C14.1732,3.1752,11.0052,0,7.08768,0C3.1752,0,0,3.16944,0,7.0884l0,13.649c1.47384,1.65096,4.0968,2.75256,7.08768,2.75256c4.61952,0,8.36856,-2.61792,8.36856,-5.85936l0,-1.52352C15.4555,14.9645,14.9818,13.9032,14.1732,13.001z" opacity="0.65"/>
  <path xmlns="http://www.w3.org/2000/svg" id="path34" fill="#FFFFFF" d="M10.3882,3.75408l1.4364,-0.2736c-0.84168,-1.13184,-2.08224,-1.95768,-3.54168,-2.23848l0.25416,1.08072C9.30096,2.59344,9.94392,3.1032,10.3882,3.75408z" opacity="0.5"/>
  <path xmlns="http://www.w3.org/2000/svg" id="path36" fill="#FFFFFF" d="M0.76824,19.926l0,1.51992c0.64872,0.5292,1.43352,0.97632,2.3076,1.31688l0,-1.52496C2.19744,20.9016,1.41912,20.4559,0.76824,19.926z" opacity="0.5"/>
  <path xmlns="http://www.w3.org/2000/svg" id="path38" fill="#FFFFFF" d="M11.0729,20.2097c-0.2556,0.1224,-0.52992,0.22968,-0.80568,0.32976c-0.05832,0.01944,-0.11736,0.04032,-0.17784,0.05832c-0.56376,0.17928,-1.16136,0.31896,-1.79496,0.39456c-0.07488,0.00936,-0.1512,0.01872,-0.22464,0.01944c-0.3204,0.03024,-0.64368,0.05832,-0.97056,0.05832c-0.14832,0,-0.30744,-0.01512,-0.4716,-0.02376c-1.20024,-0.05688,-2.33064,-0.31464,-3.2976,-0.73944L3.33,11.9174L3.33,7.092c0,-1.47096,0.84816,-2.72952,2.0736,-3.34944L5.38128,3.68928l-1.24776,-1.512c-1.66968,1.00296,-2.79,2.8224,-2.79,4.91184l0,11.9052c-0.04968,-0.04968,-0.30816,-0.30888,-0.48024,-0.52992l-0.30744,0.6876c1.40112,1.48176,3.8088,2.46168,6.54264,2.46168c1.67976,0,3.23712,-0.37368,4.51152,-1.00224l-0.52704,-0.40896C11.0729,20.2097,11.0729,20.2097,11.0729,20.2097z" opacity="0.5"/>
 </g>
</g>
</g></g><path stroke='#8c8c8c' stroke-width='2.15998' stroke-linecap='round' stroke-linejoin='round' fill='none' d='M127.436,95.4741L127.436,102.652' />
<path stroke='#8c8c8c' stroke-width='2.15998' stroke-linecap='round' stroke-linejoin='round' fill='none' d='M113.069,95.4741L113.054,102.36' />
<path stroke='#8c8c8c' stroke-width='2.15998' stroke-linecap='round' stroke-linejoin='round' fill='none' d='M120.25,95.4741L120.25,102.652' />
<g partID='854113810'><g transform='translate(111.989,71.3931)' ><g transform='matrix(1,0,0,1,0,0)'  ><g xmlns="http://www.w3.org/2000/svg" id="breadboard">
 <rect xmlns="http://www.w3.org/2000/svg" id="connector0pin" x="0" height="1" width="2.15998" fill="none" y="22.081"/>
 <rect xmlns="http://www.w3.org/2000/svg" id="connector1pin" x="7.18095" height="1" width="2.15998" fill="none" y="22.081"/>
 <rect xmlns="http://www.w3.org/2000/svg" id="connector2pin" x="14.3669" height="1" width="2.15998" fill="none" y="22.081"/>
 <g xmlns="http://www.w3.org/2000/svg" x1="1.08" y1="24.081" x2="1.08" id="connector0leg" stroke-width="2.15998" y2="31.259" fill="none" stroke-linecap="round" stroke="#8C8C8C"/>
 <g xmlns="http://www.w3.org/2000/svg" x1="8.261" y1="24.081" x2="8.261" id="connector1leg" stroke-width="2.15998" y2="31.259" fill="none" stroke-linecap="round" stroke="#8C8C8C"/>
 <g xmlns="http://www.w3.org/2000/svg" x1="15.447" y1="24.081" x2="15.447" id="connector2leg" stroke-width="2.15998" y2="31.259" fill="none" stroke-linecap="round" stroke="#8C8C8C"/>
 <rect xmlns="http://www.w3.org/2000/svg" id="rect9506" x="7.17795" height="9.351" width="2.15398" fill="#8C8C8C" y="14.731"/>
 <path xmlns="http://www.w3.org/2000/svg" id="path9510" fill="#8C8C8C" d="M3.28698,14.731l0,3.316c0,0.424,-0.781994,1.059,-1.19799,1.425c-1.02499,0.891,-2.08798,1.819,-2.08798,2.992l0,1.619l2.15398,0c0,0,0,-1,0,-1.21c0,-0.517,0.903993,-1.389,1.34999,-1.769c0.996993,-0.87,1.94499,-1.69,1.94499,-2.749l0,-3.625L3.28698,14.73L3.28698,14.731z"/>
 <path xmlns="http://www.w3.org/2000/svg" id="path9514" fill="#8C8C8C" d="M13.2209,14.731l0,3.316c0,0.424,0.780994,1.059,1.19899,1.425c1.02699,0.891,2.08898,1.819,2.08898,2.992l0,1.619l-2.15398,0c0,0,0,-1,0,-1.21c0,-0.517,-0.903993,-1.389,-1.34999,-1.769c-0.997993,-0.87,-1.94499,-1.69,-1.94499,-2.749l0,-3.625L13.2209,14.73L13.2209,14.731z"/>
 <rect xmlns="http://www.w3.org/2000/svg" id="rect9553" x="1.61499" height="10.07" width="13.2779" fill="#1A1A1A" y="4.659"/>
 <path xmlns="http://www.w3.org/2000/svg" id="path9555" fill="#141414" d="M13.8889,4.659l0,2.453l0,8.228l0,1.842c0.631995,-0.713,1.00399,-1.553,1.00399,-2.453l0,0L14.8929,4.659L13.8889,4.659z"/>
 <path xmlns="http://www.w3.org/2000/svg" id="path9557" fill="#242424" d="M2.62098,4.659L1.61599,4.659l0,10.07l0,0c0,0.899,0.372997,1.74,1.00499,2.453L2.62098,15.34L2.62098,7.112L2.62098,4.659z"/>
 <path xmlns="http://www.w3.org/2000/svg" id="path9559" fill="#1F1F1F" d="M1.61499,4.659L1.61499,4.659c0,0.899,0.372997,1.74,1.00499,2.453l11.2759,0c0.631995,-0.713,1.00499,-1.554,1.00499,-2.453l0,0L1.61499,4.659z"/>
 <path xmlns="http://www.w3.org/2000/svg" id="path9561" fill="#141414" d="M8.25494,0C4.58697,0,1.61499,2.086,1.61499,4.661l13.2779,0C14.8929,2.086,11.9229,0,8.25494,0z"/>
 <rect xmlns="http://www.w3.org/2000/svg" id="rect9563" x="2.62098" height="10.07" width="11.2759" y="7.112"/>
 <path xmlns="http://www.w3.org/2000/svg" fill="#999999" d="M4.98996,14.359l0,-5.4l2.15998,0l0,1.079l1.07999,0l0,1.08l1.08099,0L9.31093,8.958l2.15898,0l0,5.4L9.31193,14.358l0,-1.079L8.23094,13.279l0,-1.08l-1.07999,0l0,2.161L4.98996,14.36z"/>
</g>
</g></g></g><g partID='854153360'><path stroke-linecap='round' fill='none' stroke-width='3.2' stroke='#000000' d='M98.6552,37.8523C102.293,60.3011, 91.457,59.7886 91.4534,52.2523' /><path stroke-linecap='round' fill='none' stroke-width='1.6' stroke='#404040' d='M98.6552,37.8523C102.293,60.3011, 91.457,59.7886 91.4534,52.2523' /></g><g partID='854153430'><path stroke-linecap='round' fill='none' stroke-width='3.2' stroke='#8c0000' d='M127.436,102.652C132.251,221.523, 83.8955,96.8449 91.4534,66.6523' /><path stroke-linecap='round' fill='none' stroke-width='1.6' stroke='#cc1414' d='M127.436,102.652C132.251,221.523, 83.8955,96.8449 91.4534,66.6523' /></g><g partID='854153680'><path stroke-linecap='round' fill='none' stroke-width='3.2' stroke='#000000' d='M91.4534,52.2523C91.3042,5.35392, 0.65584,234.413 19.4552,124.252' /><path stroke-linecap='round' fill='none' stroke-width='1.6' stroke='#404040' d='M91.4534,52.2523C91.3042,5.35392, 0.65584,234.413 19.4552,124.252' /></g><g partID='854153830'><path stroke-linecap='round' fill='none' stroke-width='3.2' stroke='#8c0000' d='M26.6552,124.252C15.1618,218.491, 95.0117,73.9087 91.4534,66.6523' /><path stroke-linecap='round' fill='none' stroke-width='1.6' stroke='#cc1414' d='M26.6552,124.252C15.1618,218.491, 95.0117,73.9087 91.4534,66.6523' /></g><g partID='854154720'><path stroke-linecap='round' fill='none' stroke-width='3.2' stroke='#000000' d='M105.857,38.1886C109.573,88.8776, 93.3201,140.233 120.25,102.652' /><path stroke-linecap='round' fill='none' stroke-width='1.6' stroke='#404040' d='M105.857,38.1886C109.573,88.8776, 93.3201,140.233 120.25,102.652' /></g><g partID='854155530'><path stroke-linecap='round' fill='none' stroke-width='3.2' stroke='#1b5bb3' d='M33.8552,124.252C27.0881,169.378, 48.2552,131.452 48.2534,124.252' /><path stroke-linecap='round' fill='none' stroke-width='1.6' stroke='#418dd9' d='M33.8552,124.252C27.0881,169.378, 48.2552,131.452 48.2534,124.252' /></g><g partID='854137790'><path stroke-linecap='round' fill='none' stroke-width='3.2' stroke='#1b5bb3' d='M120.256,131.458C75.9782,193.897, 43.1204,108.001 48.2534,73.8523' /><path stroke-linecap='round' fill='none' stroke-width='1.6' stroke='#418dd9' d='M120.256,131.458C75.9782,193.897, 43.1204,108.001 48.2534,73.8523' /></g></svg>